<svg width="357" height="265" viewBox="0 0 357 265" fill="none" xmlns="http://www.w3.org/2000/svg">
<rect x="1" y="1" width="355" height="263" rx="1" stroke="white" stroke-opacity="0.3" stroke-miterlimit="1.00382" stroke-linejoin="round"/>
<path d="M0.5 2C0.5 1.17157 1.17157 0.5 2 0.5H21.5C22.3284 0.5 23 1.17157 23 2C23 1.72386 22.5523 1.5 22 1.5H2C1.72386 1.5 1.5 1.72386 1.5 2H0.5ZM23 23H1H23ZM2 23C1.17157 23 0.5 22.3284 0.5 21.5V2C0.5 1.17157 1.17157 0.5 2 0.5V1.5C1.72386 1.5 1.5 1.72386 1.5 2V22C1.5 22.5523 1.72386 23 2 23ZM23 1V23V1Z" fill="white" fill-opacity="0.9"/>
<path d="M334 2C334 1.17157 334.672 0.5 335.5 0.5H355C355.828 0.5 356.5 1.17157 356.5 2H355.5C355.5 1.72386 355.276 1.5 355 1.5H335C334.448 1.5 334 1.72386 334 2ZM356 23H334H356ZM334 23V1V23ZM355 0.5C355.828 0.5 356.5 1.17157 356.5 2V21.5C356.5 22.3284 355.828 23 355 23C355.276 23 355.5 22.5523 355.5 22V2C355.5 1.72386 355.276 1.5 355 1.5V0.5Z" fill="white" fill-opacity="0.9"/>
<path d="M1 242H23H1ZM23 263C23 263.828 22.3284 264.5 21.5 264.5H2C1.17157 264.5 0.5 263.828 0.5 263H1.5C1.5 263.276 1.72386 263.5 2 263.5H22C22.5523 263.5 23 263.276 23 263ZM2 264.5C1.17157 264.5 0.5 263.828 0.5 263V243.5C0.5 242.672 1.17157 242 2 242C1.72386 242 1.5 242.448 1.5 243V263C1.5 263.276 1.72386 263.5 2 263.5V264.5ZM23 242V264V242Z" fill="white" fill-opacity="0.9"/>
<path d="M334 242H356H334ZM356.5 263C356.5 263.828 355.828 264.5 355 264.5H335.5C334.672 264.5 334 263.828 334 263C334 263.276 334.448 263.5 335 263.5H355C355.276 263.5 355.5 263.276 355.5 263H356.5ZM334 264V242V264ZM355 242C355.828 242 356.5 242.672 356.5 243.5V263C356.5 263.828 355.828 264.5 355 264.5V263.5C355.276 263.5 355.5 263.276 355.5 263V243C355.5 242.448 355.276 242 355 242Z" fill="white" fill-opacity="0.9"/>
</svg>
